<svg width="24" height="24" viewBox="0 0 24 24" fill="none" xmlns="http://www.w3.org/2000/svg">
<path d="M0 13.2813H1.82653L2.84151 8.23267H1.01474L0 13.2813ZM1.11538 7.63052H2.94956L3.251 6.12H1.41753L1.11538 7.63052ZM2.53697 14.7019H4.36375L5.47984 9.24741H6.8498L7.05179 8.23267H5.70813L5.75904 8.00438C5.83506 7.5741 5.98733 7.091 6.67219 7.091C7.07857 7.091 7.45888 7.11633 7.8392 7.29394L8.04239 6.22853C7.61854 6.07897 7.17257 6.00172 6.72311 6C5.25155 6 4.23705 6.86271 3.85626 8.23267H3.22207L3.01912 9.24741H3.65331L2.53697 14.7019Z" fill="#54412F"/>
<path d="M8.32146 13.3829C10.4779 13.3829 11.9748 11.4292 11.9748 9.83091C11.9748 8.63855 10.8838 8.13106 9.81836 8.13106C7.45828 8.13106 6.16505 10.238 6.16505 11.683C6.16505 12.8754 7.28138 13.3829 8.32146 13.3829V13.3829ZM14.1063 13.3829C16.2627 13.3829 17.7596 11.4292 17.7596 9.83091C17.7596 8.63855 16.6433 8.13106 15.5776 8.13106C13.2183 8.13106 11.9246 10.2368 11.9246 11.683C11.9246 12.8754 13.0662 13.3829 14.1063 13.3829V13.3829ZM20.7278 13.2813H22.529L24.0001 6.10254H22.1736L21.7421 8.23361L20.981 8.1576C19.2051 8.1576 17.5815 10.4407 17.5815 12.0645C17.5815 12.7241 18.0118 13.3838 18.7486 13.3838C19.7886 13.3838 20.5244 12.8763 20.8282 12.3688H20.9296L20.7278 13.2813ZM15.0952 17.0615C13.6774 18.2362 11.8564 18.8098 10.0213 18.6597C7.61102 18.5075 5.88585 16.6554 5.58154 14.7019H5.6829C6.24106 15.921 7.58569 17.0615 9.23485 17.2389C10.9082 17.4418 12.9135 16.6809 14.0043 15.6406L12.7866 14.7019H16.4652L15.6525 18.6091L15.1196 17.0868L15.0952 17.0615Z" fill="#54412F"/>
</svg>
