<svg width="24" height="24" viewBox="0 0 24 24" fill="none" xmlns="http://www.w3.org/2000/svg">
<path fill-rule="evenodd" clip-rule="evenodd" d="M18.7224 10.8901C18.689 11.0715 18.6363 11.2809 18.5655 11.5117C18.4943 11.7425 18.4031 11.986 18.2956 12.2328C18.1787 12.4816 18.0574 12.7144 17.9359 12.9242C17.8156 13.1319 17.6954 13.3106 17.5802 13.4552C17.4676 13.5962 17.3631 13.7004 17.2702 13.7652C17.2001 13.814 17.161 13.8193 17.1476 13.8193C17.1413 13.8193 17.1363 13.8183 17.1309 13.8159C17.1192 13.8106 17.0801 13.7845 17.0631 13.6606C17.0471 13.547 17.0558 13.3977 17.0882 13.217C17.1216 13.031 17.174 12.8196 17.2451 12.5901C17.3153 12.3607 17.4065 12.1172 17.5157 11.867C17.6239 11.6188 17.7421 11.3874 17.8677 11.1786C17.9926 10.9702 18.1142 10.7935 18.2295 10.6532C18.3413 10.5163 18.4459 10.4138 18.5401 10.348C18.6105 10.2992 18.6493 10.2939 18.6626 10.2939C18.6694 10.2939 18.6744 10.2949 18.679 10.2973C18.6908 10.3023 18.7298 10.3287 18.7471 10.4526C18.7628 10.5661 18.7545 10.7131 18.7224 10.8901H18.7224ZM14.0337 10.8901C14.0003 11.0715 13.9475 11.2809 13.8767 11.5117C13.8053 11.7438 13.7141 11.987 13.6069 12.2328C13.4896 12.4823 13.3684 12.7151 13.2471 12.9242C13.1266 13.1323 13.0067 13.311 12.8914 13.4552C12.7789 13.5962 12.6747 13.7004 12.5811 13.7652C12.511 13.814 12.4723 13.8193 12.4589 13.8193C12.4526 13.8193 12.4475 13.8183 12.4422 13.816C12.4304 13.8107 12.3914 13.7846 12.3744 13.6607C12.3584 13.5475 12.3667 13.3985 12.3994 13.2172C12.4325 13.0314 12.4853 12.8207 12.5564 12.5902C12.6266 12.3604 12.7177 12.1173 12.827 11.8671C12.9355 11.6183 13.0541 11.3868 13.1787 11.1787C13.3042 10.97 13.4258 10.7933 13.5407 10.6534C13.6529 10.5164 13.7578 10.4135 13.8513 10.3481C13.9215 10.2993 13.9606 10.294 13.9739 10.294C13.9807 10.294 13.9857 10.295 13.9903 10.2973C14.002 10.3023 14.0414 10.3287 14.0584 10.4526C14.0741 10.5661 14.0657 10.7131 14.0337 10.8901H14.0337ZM8.95355 10.8434C8.93285 11.0277 8.89277 11.2381 8.83431 11.4693C8.77552 11.6997 8.69537 11.9422 8.5955 12.1907C8.49596 12.4379 8.39009 12.6703 8.2802 12.8814C8.17265 13.0878 8.0641 13.2639 7.95689 13.4048C7.85268 13.5418 7.75482 13.644 7.66564 13.7084C7.59985 13.7562 7.5631 13.7615 7.55074 13.7615C7.54506 13.7615 7.54001 13.7605 7.53471 13.7581C7.52272 13.7528 7.48127 13.7257 7.45989 13.5998C7.43985 13.4846 7.43818 13.3359 7.45421 13.1576C7.47091 12.9766 7.50865 12.7685 7.56676 12.5394C7.62488 12.3099 7.70537 12.0671 7.80557 11.8179C7.90643 11.5674 8.01265 11.3353 8.1212 11.1269C8.22809 10.9208 8.33697 10.7428 8.44485 10.5975C8.54839 10.4572 8.64659 10.3536 8.73543 10.2892C8.80123 10.2414 8.83797 10.2361 8.85066 10.2361C8.85634 10.2361 8.86139 10.2371 8.86602 10.2395C8.87871 10.2448 8.92179 10.2729 8.94819 10.4005C8.97156 10.514 8.97324 10.663 8.95328 10.8437L8.95355 10.8434ZM19.2261 9.31162C19.4716 9.31162 19.6827 9.38677 19.8537 9.5354C20.0187 9.67869 20.1366 9.88343 20.2037 10.1436C20.2689 10.3958 20.2822 10.7007 20.2438 11.0504C20.2054 11.3958 20.1045 11.7899 19.9432 12.2218C19.7912 12.6299 19.6169 12.989 19.4258 13.2886C19.3333 13.4342 19.2381 13.5705 19.1416 13.6964C19.1292 13.7124 19.1477 13.7335 19.1653 13.7238C19.2214 13.6934 19.2772 13.6603 19.3323 13.6243C19.4579 13.5431 19.5785 13.4556 19.693 13.3631C20.0127 13.1042 20.2448 12.7542 20.3577 12.3607C20.4252 12.1239 20.5 11.8891 20.5815 11.6576C20.7151 11.2766 20.8577 10.9208 21.0057 10.6002C21.1526 10.2806 21.2749 10.0414 21.3691 9.88878C21.4759 9.7151 21.6256 9.60688 21.815 9.5668C21.992 9.5294 22.1613 9.53206 22.317 9.57412C22.4763 9.61755 22.6065 9.69637 22.7037 9.80926C22.8096 9.9325 22.8327 10.0728 22.7699 10.2151C22.7512 10.2642 22.7021 10.3764 22.6239 10.5491C22.5454 10.7228 22.4572 10.9255 22.3547 11.17C22.2562 11.4048 22.155 11.659 22.0541 11.9248C21.9556 12.186 21.8784 12.4298 21.825 12.6496C21.7729 12.8634 21.7525 13.0411 21.7642 13.1777C21.7756 13.3083 21.8253 13.3083 21.8524 13.3083C21.8904 13.3083 21.9579 13.2902 22.0628 13.2047C22.1637 13.1212 22.2702 13.0207 22.3801 12.9044C22.49 12.7879 22.5955 12.6623 22.6931 12.5314C22.7822 12.4121 22.8587 12.3066 22.9208 12.2174C22.9749 12.1396 23.0611 12.0952 23.157 12.0952C23.2582 12.0952 23.3564 12.1459 23.4075 12.2244C23.4572 12.3012 23.4559 12.3928 23.4031 12.4749C23.337 12.5781 23.2214 12.7511 23.0498 13.0046C22.8797 13.2551 22.6763 13.5133 22.4452 13.7725C22.2101 14.0354 21.9532 14.2688 21.681 14.4662C21.3948 14.6743 21.1055 14.7795 20.822 14.7795C20.5655 14.7795 20.3741 14.6907 20.2528 14.515C20.1426 14.3547 20.0865 14.1396 20.0865 13.8757V13.8336C20.0872 13.8022 20.0504 13.7845 20.0261 13.8042C19.9723 13.8473 19.9168 13.8901 19.8604 13.9322C19.527 14.1803 19.1422 14.3908 18.7161 14.5581C18.3356 14.7077 17.9165 14.7835 17.4702 14.7835L17.3794 14.7825L17.2882 14.7795C16.9843 14.7788 16.7588 14.6836 16.6175 14.4956C16.5925 14.4625 16.5694 14.4285 16.5491 14.3934C16.5327 14.3653 16.4903 14.37 16.4809 14.4014C16.4352 14.554 16.3918 14.7013 16.3517 14.8422C16.2648 15.1452 16.1907 15.4074 16.1256 15.6438C16.0601 15.881 16.0033 16.0971 15.9565 16.2871C15.9115 16.4702 15.8801 16.6185 15.864 16.7283L15.863 16.7324C15.8219 16.9405 15.6813 17.0136 15.5701 17.0387C15.5207 17.0497 15.4692 17.0554 15.4171 17.0554C15.3229 17.0554 15.2234 17.037 15.1215 17.0013C14.9666 16.9465 14.8273 16.852 14.707 16.7201C14.5825 16.5831 14.5193 16.4118 14.5193 16.2107C14.5193 16.17 14.5297 16.0808 14.6095 15.7525C14.6693 15.5103 14.7498 15.209 14.8497 14.8567C14.9171 14.6179 14.9939 14.358 15.0791 14.0801C15.0891 14.0467 15.0511 14.019 15.0223 14.0387C14.7254 14.2408 14.3924 14.4154 14.029 14.5581C13.6483 14.7077 13.2294 14.7835 12.7832 14.7835C12.7231 14.7835 12.6616 14.7821 12.6008 14.7795C12.2972 14.7788 12.0718 14.6836 11.9302 14.4956C11.9051 14.4625 11.8824 14.4288 11.862 14.3934C11.8453 14.3653 11.8032 14.3703 11.7939 14.4013C11.7478 14.5543 11.7044 14.7019 11.6643 14.8422C11.5771 15.1461 11.503 15.4087 11.4385 15.6438C11.373 15.8809 11.3159 16.097 11.2692 16.2871C11.2241 16.4705 11.193 16.6188 11.1767 16.7283L11.176 16.7324C11.1349 16.9405 10.994 17.0136 10.8827 17.0387C10.8333 17.0496 10.7822 17.0554 10.7301 17.0554C10.6359 17.0554 10.5364 17.037 10.4342 17.0012C10.2792 16.9465 10.1402 16.852 10.02 16.72C9.89542 16.5831 9.8323 16.4117 9.8323 16.2107C9.8323 16.1696 9.84227 16.0804 9.92248 15.7524C9.98261 15.5079 10.0631 15.2067 10.1623 14.8566C10.2211 14.6485 10.2862 14.4268 10.3594 14.1873C10.3701 14.1512 10.326 14.1238 10.2979 14.1495C10.1733 14.2631 10.0451 14.369 9.91347 14.4658C9.63124 14.6739 9.344 14.7795 9.06009 14.7795C8.80358 14.7795 8.61186 14.6906 8.49096 14.5149C8.44221 14.4441 8.40414 14.3623 8.37642 14.2704C8.35204 14.1886 8.24716 14.1635 8.18771 14.2253C8.1042 14.3122 8.01235 14.3913 7.91382 14.4611C7.78557 14.552 7.64228 14.6281 7.4873 14.6876C7.32765 14.7484 7.15497 14.7794 6.97394 14.7794C6.72912 14.7794 6.51436 14.7049 6.336 14.5576C6.16232 14.4154 6.03373 14.2136 5.95324 13.9574C5.87508 13.7093 5.84635 13.4043 5.86773 13.0506C5.88911 12.7013 5.9686 12.3092 6.10421 11.8846C6.39312 11.0042 6.76987 10.3506 7.22445 9.94075C7.68737 9.52325 8.15698 9.31149 8.62024 9.31149C8.8163 9.31149 8.9823 9.3509 9.11289 9.42839C9.24148 9.5052 9.34068 9.60674 9.40781 9.73032C9.45257 9.81349 9.48531 9.90267 9.50535 9.99752C9.50895 10.0142 9.53173 10.0176 9.54008 10.0026C9.56347 9.96049 9.58585 9.92276 9.60689 9.88834C9.71377 9.71533 9.8614 9.60711 10.0461 9.5667C10.2188 9.5293 10.3878 9.53163 10.5478 9.57377C10.7118 9.6172 10.8444 9.69635 10.9419 9.80924C11.0478 9.93249 11.0708 10.0728 11.0077 10.2151C10.9893 10.2635 10.9419 10.373 10.8621 10.549C10.7842 10.7214 10.6934 10.9301 10.5929 11.17C10.4933 11.4074 10.3921 11.6616 10.2923 11.9248C10.1934 12.186 10.1162 12.4301 10.0631 12.6496C10.011 12.8637 9.99065 13.0414 10.0024 13.1776C10.0137 13.3082 10.0635 13.3082 10.0902 13.3082C10.1286 13.3082 10.1961 13.2902 10.3006 13.2047C10.3584 13.1569 10.4185 13.1032 10.48 13.044C10.7181 12.8146 10.8778 12.5641 10.9843 12.2525C11.1259 11.839 11.2749 11.4308 11.4279 11.0374C11.5912 10.6189 11.7505 10.2431 11.9015 9.92046C11.9803 9.75346 12.1052 9.6409 12.2716 9.5868C12.4275 9.53602 12.5875 9.52534 12.7448 9.55507C12.9018 9.58513 13.0394 9.64759 13.1537 9.74111C13.2044 9.78253 13.2448 9.82728 13.2749 9.87438C13.2829 9.88706 13.2923 9.8884 13.3033 9.87804C13.4382 9.75346 13.5872 9.63923 13.7478 9.53736C13.983 9.38739 14.2492 9.31158 14.5391 9.31158C14.7843 9.31158 14.9957 9.38673 15.1663 9.53536C15.3317 9.67898 15.4496 9.88339 15.5167 10.1436C15.5818 10.3954 15.5952 10.7007 15.5568 11.0504C15.5184 11.3954 15.4172 11.7899 15.2562 12.2217C15.1039 12.6302 14.9295 12.9893 14.7385 13.2885C14.646 13.4342 14.5508 13.5704 14.4543 13.6963C14.4419 13.7124 14.4605 13.7334 14.4783 13.7237C14.5341 13.6933 14.5899 13.6603 14.6453 13.6242C14.7351 13.5661 14.8223 13.5046 14.9065 13.4405C15.2265 13.1973 15.4653 12.8647 15.5925 12.4859L15.6426 12.338C15.7929 11.8937 15.9519 11.4562 16.1149 11.0374C16.2786 10.6182 16.4379 10.2424 16.5889 9.92046C16.6674 9.75346 16.7919 9.64123 16.9589 9.58679C17.1149 9.53602 17.2749 9.52534 17.4322 9.55507C17.5892 9.58513 17.7265 9.64759 17.8407 9.74078C17.8915 9.78252 17.9319 9.82729 17.9619 9.87438C17.97 9.88706 17.9793 9.8884 17.9903 9.87804C18.1253 9.75346 18.2742 9.63923 18.4349 9.53736C18.6703 9.38738 18.9365 9.31156 19.2261 9.31156V9.31162ZM3.86406 7.23113C4.2161 7.23113 4.5688 7.27188 4.91282 7.3517C5.25918 7.43253 5.57348 7.55544 5.84636 7.7171C6.12258 7.88076 6.34936 8.08617 6.52037 8.32765C6.69472 8.57347 6.7829 8.86172 6.7829 9.18436C6.7829 9.53172 6.70541 9.85771 6.55244 10.153C6.4008 10.4452 6.19205 10.7121 5.93253 10.9462C5.67535 11.1787 5.37041 11.3838 5.02605 11.5554C4.74215 11.6971 4.44055 11.818 4.12725 11.9152C4.10721 11.9215 4.1002 11.9319 4.1012 11.9519C4.10789 12.1055 4.1189 12.2575 4.1346 12.4038C4.1523 12.5718 4.17568 12.7355 4.20441 12.8908C4.23246 13.0434 4.26653 13.192 4.30494 13.3327C4.335 13.4415 4.3684 13.5474 4.40414 13.648C4.42685 13.7121 4.4509 13.7749 4.47529 13.8337C4.52438 13.9522 4.5785 14.0658 4.63594 14.171C4.69239 14.2745 4.75351 14.3727 4.81764 14.4629C4.8801 14.5508 4.94723 14.6333 5.01704 14.7087C5.08518 14.7822 5.15732 14.8497 5.23147 14.9098C5.30361 14.9683 5.37977 15.0214 5.45759 15.0668C5.53341 15.1115 5.6129 15.1503 5.69406 15.1824C5.77389 15.2138 5.85639 15.2391 5.93955 15.2575C6.02306 15.2759 6.10889 15.2876 6.19573 15.2932C6.28224 15.2985 6.37242 15.2975 6.46226 15.2896C6.55378 15.2816 6.6473 15.2669 6.74015 15.2452C6.83535 15.2231 6.9322 15.1941 7.02873 15.1583C7.1276 15.1216 7.22746 15.0768 7.32599 15.0264C7.36374 15.007 7.40181 14.9863 7.43955 14.9649C7.56247 14.8948 7.71945 14.9282 7.80195 15.0418C7.88478 15.1553 7.86641 15.3123 7.75953 15.4045C7.70709 15.4496 7.65432 15.4937 7.60222 15.5357C7.47563 15.6379 7.34871 15.7328 7.22479 15.8173C7.10723 15.8975 6.98765 15.9723 6.86942 16.0387C6.8103 16.0722 6.74818 16.1049 6.68505 16.1363C6.56381 16.1971 6.44123 16.2505 6.31998 16.2953C6.19941 16.3397 6.07817 16.3768 5.95993 16.4048C5.84203 16.4329 5.72312 16.4532 5.60723 16.4649C5.52439 16.4733 5.44156 16.4776 5.36073 16.4776C5.328 16.4776 5.29527 16.4769 5.26253 16.4753C5.15031 16.4706 5.03875 16.4576 4.93053 16.4366C4.8771 16.4262 4.82298 16.4135 4.77021 16.3988C4.71911 16.3851 4.66668 16.3688 4.61424 16.3497C4.5137 16.3137 4.41383 16.2693 4.31831 16.2175C4.22479 16.1667 4.1326 16.1083 4.0451 16.0435C3.97429 15.991 3.90482 15.9333 3.83902 15.8721C3.75985 15.7987 3.6827 15.7168 3.60956 15.63C3.53741 15.5441 3.46827 15.4513 3.40415 15.3541C3.33969 15.2572 3.27889 15.1537 3.22278 15.0468C3.167 14.9399 3.1139 14.8264 3.0658 14.7095C3.01804 14.5936 2.97361 14.4707 2.93321 14.3434C2.89345 14.2185 2.85706 14.0862 2.82498 13.95C2.79325 13.814 2.76553 13.6731 2.74249 13.5308C2.72178 13.4049 2.70441 13.2743 2.69072 13.1417C2.68668 13.1016 2.62892 13.0963 2.61723 13.1354C2.56713 13.3084 2.52171 13.476 2.48163 13.6364C2.4312 13.8374 2.38477 14.0205 2.34269 14.1848C2.30161 14.3458 2.27255 14.4754 2.25585 14.5699C2.22244 14.7376 2.11122 14.8434 1.93287 14.8778C1.77956 14.9079 1.6149 14.8952 1.44522 14.8411C1.27756 14.7873 1.12525 14.6942 0.991985 14.5636C0.852372 14.4266 0.781565 14.2546 0.781565 14.0519C0.781565 13.8869 0.823652 13.626 0.909821 13.2549C0.993984 12.8926 1.11523 12.463 1.27088 11.9777C1.42519 11.4964 1.61256 10.9657 1.82732 10.4012C2.01169 9.91627 2.21877 9.42796 2.44322 8.94633C2.5167 8.78868 2.66867 8.68013 2.84402 8.66009C3.24048 8.61467 3.5845 8.62602 3.87609 8.69349C4.05177 8.73424 4.14596 8.92228 4.07248 9.08427C3.88444 9.49777 3.71109 9.91026 3.55611 10.3117C3.43086 10.6367 3.31062 10.9584 3.19706 11.2713C3.18608 11.3024 3.21811 11.3311 3.24816 11.3174C3.39947 11.2489 3.54876 11.1681 3.69472 11.0759C3.93387 10.9246 4.15164 10.7439 4.34235 10.5392C4.53206 10.3344 4.68771 10.1036 4.80494 9.8528C4.92051 9.60431 4.97929 9.33443 4.97929 9.04986C4.97929 8.68413 4.87642 8.41393 4.67368 8.24726C4.46827 8.07859 4.17902 7.99275 3.81363 7.99275C3.42452 7.99275 3.0688 8.0836 2.75651 8.26296C2.43587 8.44666 2.15865 8.67244 1.93253 8.9343C1.70474 9.19816 1.52505 9.48006 1.39913 9.77231C1.27422 10.0619 1.21075 10.3157 1.21075 10.5272C1.21075 10.6785 1.1296 10.7877 0.982297 10.8348C0.85304 10.8762 0.710421 10.8702 0.564128 10.8164C0.423513 10.765 0.293253 10.6631 0.176686 10.5141C0.05945 10.3645 0 10.1618 0 9.91159C0 9.69315 0.0841624 9.43597 0.257181 9.12535C0.425518 8.82241 0.674682 8.52749 0.996994 8.2486C1.31897 7.97038 1.72512 7.72889 2.20541 7.53116C2.68838 7.3321 3.24649 7.23123 3.86406 7.23123L3.86406 7.23113ZM23.0247 7C23.5635 7 24 7.43086 24 7.96192C24 8.49299 23.5635 8.92385 23.0247 8.92385C22.486 8.92385 22.0494 8.49299 22.0494 7.96192C22.0494 7.43086 22.486 7 23.0247 7V7Z" fill="#54412F"/>
</svg>
